<svg xmlns="http://www.w3.org/2000/svg" width="128" height="128" viewBox="0 0 128 128">
  <title>BLOCKCHAIN</title>
  <path d="M112.011,80.421a9.483,9.483,0,0,0-11.964,2.089L87.32,75.884V52.116l12.736-6.631a9.436,9.436,0,1,0-1.742-3.038L85.57,49.082,65.75,38.764V23.338a9.475,9.475,0,1,0-3.5,0V38.764L42.43,49.082,29.686,42.447a9.552,9.552,0,1,0-1.742,3.038L40.68,52.116V75.884L27.952,82.51a9.462,9.462,0,1,0,1.734,3.043L42.43,78.918,62.25,89.236v15.426a9.475,9.475,0,1,0,3.5,0V89.236L85.57,78.918l12.744,6.635a9.474,9.474,0,1,0,13.7-5.132ZM104.286,34.2A5.975,5.975,0,1,1,102.1,42.36,5.941,5.941,0,0,1,104.286,34.2ZM58.025,14.032A5.975,5.975,0,1,1,64,20.007,5.981,5.981,0,0,1,58.025,14.032ZM64,41.8l17.78,9.257L64,60.313,46.22,51.055Zm-46.261,2.75A5.975,5.975,0,1,1,25.9,42.36,5.983,5.983,0,0,1,17.739,44.548ZM23.714,93.8A5.975,5.975,0,1,1,25.9,85.64,5.941,5.941,0,0,1,23.714,93.8ZM44.18,53.938l18.07,9.408V85.291L44.18,75.884Zm25.795,60.03A5.975,5.975,0,1,1,64,107.993,5.981,5.981,0,0,1,69.975,113.968ZM65.75,85.291V63.346l18.07-9.408V75.884Zm46.7,6.323a5.975,5.975,0,1,1-2.187-8.162A5.932,5.932,0,0,1,112.448,91.614Z"/>
</svg>
